# xmcd
# 
# Track frame offsets:
#     150
#     14915
#     28816
#     46172
#     58264
#     72570
#     87119
#     99103
#     113598
#     126716
#     137810
#     152521
#     153006
#     167069
#     177704
#     190147
#     202698
#     219514
#     232686
#     245642
#     259489
#     285591
# 
# Disc length: 4130
# 
# Revision: 3
# Processed by: cddbd v1.5.2PL0 Copyright (c) Steve Scherf et al.
# Submitted via: BonkEnc v1.0
# 
DISCID=3a102016
DTITLE=Sulino and Marrueiro - Sucessos Inesquecíveis(dimas som)
DYEAR=1965
DGENRE=Country
TTITLE0=Seguirei Para Sempre Seus Passos-Sulino and Marrueiro
TTITLE1=Quatro Caminhos-Sulino and Marrueiro
TTITLE2=Quando A Lua Vem Surgindo-Sulino and Marrueiro
TTITLE3=Morena Dos Olhos Pretos-Sulino and Marrueiro
TTITLE4=Sete Léguas-Sulino and Marrueiro
TTITLE5=Mãos Que Falam-Sulino and Marrueiro
TTITLE6=Abismo Cruel-Sulino and Marrueiro
TTITLE7=Teu Amor Eu Perdi Para Sempre-Sulino and Marrueiro
TTITLE8=A Volta Do Boiadeiro-Sulino and Marrueiro
TTITLE9=Não Importa-Sulino and Marrueiro
TTITLE10=Viola Da Meia Noite-Sulino and Marrueiro
TTITLE11=Juramento Quebrado-Sulino and Marrueiro
TTITLE12=Peão Da Cidade-Sulino and Marrueiro
TTITLE13=Flor Matogrossense-Sulino and Marrueiro
TTITLE14=Viola Sentida-Sulino and Marrueiro
TTITLE15=Mandamentos Do Chofer-Sulino and Marrueiro
TTITLE16=Viola Sentida-Sulino and Marrueiro
TTITLE17=Meu Querido Sertão-Sulino and Marrueiro
TTITLE18=Campeão De Viola-Sulino and Marrueiro
TTITLE19=Festa No Céu-Sulino and Marrueiro
TTITLE20=Naum Sei
TTITLE21=Naum Sei 02
EXTD=
EXTT0=
EXTT1=
EXTT2=
EXTT3=
EXTT4=
EXTT5=
EXTT6=
EXTT7=
EXTT8=
EXTT9=
EXTT10=
EXTT11=
EXTT12=
EXTT13=
EXTT14=
EXTT15=
EXTT16=
EXTT17=
EXTT18=
EXTT19=
EXTT20=
EXTT21=
PLAYORDER=
